<?xml version="1.0" encoding="us-ascii" standalone="no"?><svg xmlns="http://www.w3.org/2000/svg" xmlns:xlink="http://www.w3.org/1999/xlink" contentStyleType="text/css" height="463px" preserveAspectRatio="none" style="width:543px;height:463px;background:#FFFFFF;" version="1.1" viewBox="0 0 543 463" width="543px" zoomAndPan="magnify"><defs/><g><text fill="#000000" font-family="sans-serif" font-size="14" font-weight="bold" lengthAdjust="spacing" textLength="350.4375" x="89.7663" y="24.5332">JJRAM Banking System &#8212; Package Dependencies</text><!--entity bank--><g id="elem_bank"><path d="M220.5,44.6094 L264.5,44.6094 A6,6 0 0 1 268.5,48.6094 L275.5,68.2188 L324.5,68.2188 A4,4 0 0 1 328.5,72.2188 L328.5,98.8281 A4,4 0 0 1 324.5,102.8281 L220.5,102.8281 A4,4 0 0 1 216.5,98.8281 L216.5,48.6094 A4,4 0 0 1 220.5,44.6094 " fill="#DBE4FF" style="stroke:#2563EB;stroke-width:0.5;"/><line style="stroke:#2563EB;stroke-width:0.5;" x1="216.5" x2="275.5" y1="68.2188" y2="68.2188"/><text fill="#000000" font-family="sans-serif" font-size="14" font-weight="bold" lengthAdjust="spacing" textLength="34" x="226.5" y="62.1426">bank</text><text fill="#000000" font-family="sans-serif" font-size="14" font-weight="bold" lengthAdjust="spacing" textLength="82" x="226.5" y="89.752">bank (Main)</text></g><!--entity auth--><g id="elem_auth"><path d="M10,162.6094 L51,162.6094 A6,6 0 0 1 55,166.6094 L62,186.2188 L101,186.2188 A4,4 0 0 1 105,190.2188 L105,216.8281 A4,4 0 0 1 101,220.8281 L10,220.8281 A4,4 0 0 1 6,216.8281 L6,166.6094 A4,4 0 0 1 10,162.6094 " fill="#F7F8FB" style="stroke:#2563EB;stroke-width:0.5;"/><line style="stroke:#2563EB;stroke-width:0.5;" x1="6" x2="62" y1="186.2188" y2="186.2188"/><text fill="#000000" font-family="sans-serif" font-size="14" font-weight="bold" lengthAdjust="spacing" textLength="31" x="16" y="180.1426">auth</text><text fill="#000000" font-family="sans-serif" font-size="14" font-weight="bold" lengthAdjust="spacing" textLength="69" x="16" y="207.752">bank.auth</text></g><!--entity service--><g id="elem_service"><path d="M216,162.6094 L279,162.6094 A6,6 0 0 1 283,166.6094 L290,186.2188 L329,186.2188 A4,4 0 0 1 333,190.2188 L333,216.8281 A4,4 0 0 1 329,220.8281 L216,220.8281 A4,4 0 0 1 212,216.8281 L212,166.6094 A4,4 0 0 1 216,162.6094 " fill="#F7F8FB" style="stroke:#2563EB;stroke-width:0.5;"/><line style="stroke:#2563EB;stroke-width:0.5;" x1="212" x2="290" y1="186.2188" y2="186.2188"/><text fill="#000000" font-family="sans-serif" font-size="14" font-weight="bold" lengthAdjust="spacing" textLength="53" x="222" y="180.1426">service</text><text fill="#000000" font-family="sans-serif" font-size="14" font-weight="bold" lengthAdjust="spacing" textLength="91" x="222" y="207.752">bank.service</text></g><!--entity reporting--><g id="elem_reporting"><path d="M329.5,280.6094 L405.5,280.6094 A6,6 0 0 1 409.5,284.6094 L416.5,304.2188 L455.5,304.2188 A4,4 0 0 1 459.5,308.2188 L459.5,334.8281 A4,4 0 0 1 455.5,338.8281 L329.5,338.8281 A4,4 0 0 1 325.5,334.8281 L325.5,284.6094 A4,4 0 0 1 329.5,280.6094 " fill="#F7F8FB" style="stroke:#2563EB;stroke-width:0.5;"/><line style="stroke:#2563EB;stroke-width:0.5;" x1="325.5" x2="416.5" y1="304.2188" y2="304.2188"/><text fill="#000000" font-family="sans-serif" font-size="14" font-weight="bold" lengthAdjust="spacing" textLength="66" x="335.5" y="298.1426">reporting</text><text fill="#000000" font-family="sans-serif" font-size="14" font-weight="bold" lengthAdjust="spacing" textLength="104" x="335.5" y="325.752">bank.reporting</text></g><!--entity persistence--><g id="elem_persistence"><path d="M71.5,280.6094 L165.5,280.6094 A6,6 0 0 1 169.5,284.6094 L176.5,304.2188 L215.5,304.2188 A4,4 0 0 1 219.5,308.2188 L219.5,334.8281 A4,4 0 0 1 215.5,338.8281 L71.5,338.8281 A4,4 0 0 1 67.5,334.8281 L67.5,284.6094 A4,4 0 0 1 71.5,280.6094 " fill="#F7F8FB" style="stroke:#2563EB;stroke-width:0.5;"/><line style="stroke:#2563EB;stroke-width:0.5;" x1="67.5" x2="176.5" y1="304.2188" y2="304.2188"/><text fill="#000000" font-family="sans-serif" font-size="14" font-weight="bold" lengthAdjust="spacing" textLength="84" x="77.5" y="298.1426">persistence</text><text fill="#000000" font-family="sans-serif" font-size="14" font-weight="bold" lengthAdjust="spacing" textLength="122" x="77.5" y="325.752">bank.persistence</text></g><!--entity model--><g id="elem_model"><path d="M221,398.6094 L274,398.6094 A6,6 0 0 1 278,402.6094 L285,422.2188 L324,422.2188 A4,4 0 0 1 328,426.2188 L328,452.8281 A4,4 0 0 1 324,456.8281 L221,456.8281 A4,4 0 0 1 217,452.8281 L217,402.6094 A4,4 0 0 1 221,398.6094 " fill="#F7F8FB" style="stroke:#2563EB;stroke-width:0.5;"/><line style="stroke:#2563EB;stroke-width:0.5;" x1="217" x2="285" y1="422.2188" y2="422.2188"/><text fill="#000000" font-family="sans-serif" font-size="14" font-weight="bold" lengthAdjust="spacing" textLength="43" x="227" y="416.1426">model</text><text fill="#000000" font-family="sans-serif" font-size="14" font-weight="bold" lengthAdjust="spacing" textLength="81" x="227" y="443.752">bank.model</text></g><!--link bank to auth--><g id="link_bank_auth"><path d="M219.97,102.6894 C185.1,121.3294 144.9018,142.8214 110.6018,161.1514 " fill="none" id="bank-to-auth" style="stroke:#1D4ED8;stroke-width:1.0;"/><polygon fill="#1D4ED8" points="105.31,163.9794,115.1329,163.2653,109.7198,161.6228,111.3624,156.2096,105.31,163.9794" style="stroke:#1D4ED8;stroke-width:1.0;"/></g><!--link bank to service--><g id="link_bank_service"><path d="M272.5,102.6894 C272.5,120.7894 272.5,138.2494 272.5,156.3894 " fill="none" id="bank-to-service" style="stroke:#1D4ED8;stroke-width:1.0;"/><polygon fill="#1D4ED8" points="272.5,162.3894,276.5,153.3894,272.5,157.3894,268.5,153.3894,272.5,162.3894" style="stroke:#1D4ED8;stroke-width:1.0;"/></g><!--link bank to reporting--><g id="link_bank_reporting"><path d="M303.6,102.9794 C319.62,119.0894 338.3,140.4294 350.5,162.6094 C371.4,200.6294 381.7205,244.1637 387.1905,274.6537 " fill="none" id="bank-to-reporting" style="stroke:#1D4ED8;stroke-width:1.0;"/><polygon fill="#1D4ED8" points="388.25,280.5594,390.5979,270.9945,387.3671,275.6379,382.7236,272.4071,388.25,280.5594" style="stroke:#1D4ED8;stroke-width:1.0;"/></g><!--link bank to persistence--><g id="link_bank_persistence"><path d="M242.27,102.8694 C226.31,119.0994 207.42,140.5994 194.5,162.6094 C172.15,200.6994 158.9193,244.2995 151.2793,274.7695 " fill="none" id="bank-to-persistence" style="stroke:#1D4ED8;stroke-width:1.0;"/><polygon fill="#1D4ED8" points="149.82,280.5894,155.8888,272.8325,151.036,275.7395,148.129,270.8868,149.82,280.5894" style="stroke:#1D4ED8;stroke-width:1.0;"/></g><!--link bank to model--><g id="link_bank_model"><path d="M323.11,102.6294 C401.4,149.6894 536.97,248.3594 477.5,338.6094 C444.57,388.5794 382.6118,409.1451 333.9918,418.5051 " fill="none" id="bank-to-model" style="stroke:#1D4ED8;stroke-width:1.0;"/><polygon fill="#1D4ED8" points="328.1,419.6394,337.6939,421.8659,333.0098,418.6942,336.1816,414.0101,328.1,419.6394" style="stroke:#1D4ED8;stroke-width:1.0;"/></g><!--link auth to persistence--><g id="link_auth_persistence"><path d="M76.8,220.6894 C90.54,238.7894 104.7039,257.4691 118.4639,275.6091 " fill="none" id="auth-to-persistence" style="stroke:#1D4ED8;stroke-width:1.0;"/><polygon fill="#1D4ED8" points="122.09,280.3894,119.8377,270.8015,119.0683,276.4058,113.464,275.6363,122.09,280.3894" style="stroke:#1D4ED8;stroke-width:1.0;"/></g><!--link auth to model--><g id="link_auth_model"><path d="M45.1,220.8594 C35.42,252.4294 25.74,303.6894 49.5,338.6094 C86.73,393.3194 157.8044,413.1426 210.8144,420.9726 " fill="none" id="auth-to-model" style="stroke:#1D4ED8;stroke-width:1.0;"/><polygon fill="#1D4ED8" points="216.75,421.8494,208.4311,416.5772,211.8037,421.1188,207.2621,424.4913,216.75,421.8494" style="stroke:#1D4ED8;stroke-width:1.0;"/></g><!--link service to persistence--><g id="link_service_persistence"><path d="M241.27,220.6894 C221.14,238.7894 199.5102,258.2361 179.3502,276.3761 " fill="none" id="service-to-persistence" style="stroke:#1D4ED8;stroke-width:1.0;"/><polygon fill="#1D4ED8" points="174.89,280.3894,184.2558,277.3429,178.6068,277.045,178.9048,271.396,174.89,280.3894" style="stroke:#1D4ED8;stroke-width:1.0;"/></g><!--link service to model--><g id="link_service_model"><path d="M272.5,220.8394 C272.5,265.8094 272.5,347.2494 272.5,392.2794 " fill="none" id="service-to-model" style="stroke:#1D4ED8;stroke-width:1.0;"/><polygon fill="#1D4ED8" points="272.5,398.2794,276.5,389.2794,272.5,393.2794,268.5,389.2794,272.5,398.2794" style="stroke:#1D4ED8;stroke-width:1.0;"/></g><!--link reporting to model--><g id="link_reporting_model"><path d="M363.45,338.6894 C344.72,356.7894 324.7622,376.0775 306.0122,394.2175 " fill="none" id="reporting-to-model" style="stroke:#1D4ED8;stroke-width:1.0;"/><polygon fill="#1D4ED8" points="301.7,398.3894,310.9496,395.0063,305.2935,394.9128,305.387,389.2567,301.7,398.3894" style="stroke:#1D4ED8;stroke-width:1.0;"/></g><!--link persistence to model--><g id="link_persistence_model"><path d="M174.73,338.6894 C194.86,356.7894 216.4898,376.2361 236.6498,394.3761 " fill="none" id="persistence-to-model" style="stroke:#1D4ED8;stroke-width:1.0;"/><polygon fill="#1D4ED8" points="241.11,398.3894,237.0952,389.396,237.3932,395.045,231.7442,395.3429,241.11,398.3894" style="stroke:#1D4ED8;stroke-width:1.0;"/></g><!--SRC=[hP31JW8n48RlVOh9Sa0FcAYeN3G1YGSI4YDFqAMpIyFIRgP5Geo93-4J-YHsQNSfZHSJvlR_yytCt_RXyOp5-W2psTju3XEkrbALiDWRYnlu-Vg6LxvSyn9XYZKgWMgvXwda9V6D6pjh2cQbhV0VIIGQnep3QkxYW5bneNVDKC4hWr67z5Q9PqqA2KQHNuUD7mnSJPmg0rffWbxnK8oAtFSq2IJlDzMxkRk_HTzxqSekxDv5zvNhIh3FwCoOIE_2pcinH35Yh3sTvUwXS37dKbrcm0qST4_aE2oAK-gAR-qg2qSQjD49Of3UvHAp5WaweGXhJTRzLEQfJYTSZMIa-t_LR7HSf1DoemLMsJ7QGJDsUCnWyEIZTgfDrHd709qLt-hCiBRPrlv3ogOzFn8k_ZcHzln45-d4ZUOYznS0]--></g></svg>