<?xml version="1.0" encoding="us-ascii" standalone="no"?><svg xmlns="http://www.w3.org/2000/svg" xmlns:xlink="http://www.w3.org/1999/xlink" contentStyleType="text/css" height="1041px" preserveAspectRatio="none" style="width:1151px;height:1041px;background:#FFFFFF;" version="1.1" viewBox="0 0 1151 1041" width="1151px" zoomAndPan="magnify"><defs/><g><text fill="#000000" font-family="sans-serif" font-size="14" font-weight="bold" lengthAdjust="spacing" textLength="434.4375" x="359.2813" y="29.5332">JJRAM Banking System &#8212; Transfer Flow (atomic with rollback)</text><rect fill="none" height="518" rx="4" ry="4" style="stroke:#000000;stroke-width:1.5;" width="977.5" x="166.5" y="424.3828"/><rect fill="none" height="378.7578" rx="4" ry="4" style="stroke:#000000;stroke-width:1.5;" width="957.5" x="176.5" y="556.625"/><line style="stroke:#2563EB;stroke-width:0.5;stroke-dasharray:5.0,5.0;" x1="22" x2="22" y1="121.2188" y2="959.3828"/><line style="stroke:#2563EB;stroke-width:0.5;stroke-dasharray:5.0,5.0;" x1="208.5" x2="208.5" y1="121.2188" y2="959.3828"/><line style="stroke:#2563EB;stroke-width:0.5;stroke-dasharray:5.0,5.0;" x1="460.5" x2="460.5" y1="121.2188" y2="959.3828"/><line style="stroke:#2563EB;stroke-width:0.5;stroke-dasharray:5.0,5.0;" x1="643" x2="643" y1="121.2188" y2="959.3828"/><line style="stroke:#2563EB;stroke-width:0.5;stroke-dasharray:5.0,5.0;" x1="762" x2="762" y1="121.2188" y2="959.3828"/><line style="stroke:#2563EB;stroke-width:0.5;stroke-dasharray:5.0,5.0;" x1="871" x2="871" y1="121.2188" y2="959.3828"/><line style="stroke:#2563EB;stroke-width:0.5;stroke-dasharray:5.0,5.0;" x1="964" x2="964" y1="121.2188" y2="959.3828"/><line style="stroke:#2563EB;stroke-width:0.5;stroke-dasharray:5.0,5.0;" x1="1068" x2="1068" y1="121.2188" y2="959.3828"/><text fill="#000000" font-family="sans-serif" font-size="14" lengthAdjust="spacing" textLength="29" x="5" y="118.1426">User</text><ellipse cx="22.5" cy="52.1094" fill="#DBE4FF" rx="8" ry="8" style="stroke:#181818;stroke-width:0.5;"/><path d="M22.5,60.1094 L22.5,87.1094 M9.5,68.1094 L35.5,68.1094 M22.5,87.1094 L9.5,102.1094 M22.5,87.1094 L35.5,102.1094 " fill="none" style="stroke:#181818;stroke-width:0.5;"/><text fill="#000000" font-family="sans-serif" font-size="14" lengthAdjust="spacing" textLength="29" x="5" y="972.916">User</text><ellipse cx="22.5" cy="984.4922" fill="#DBE4FF" rx="8" ry="8" style="stroke:#181818;stroke-width:0.5;"/><path d="M22.5,992.4922 L22.5,1019.4922 M9.5,1000.4922 L35.5,1000.4922 M22.5,1019.4922 L9.5,1034.4922 M22.5,1019.4922 L35.5,1034.4922 " fill="none" style="stroke:#181818;stroke-width:0.5;"/><rect fill="#F7F8FB" height="31.6094" rx="4" ry="4" style="stroke:#2563EB;stroke-width:0.5;" width="44" x="186.5" y="88.6094"/><text fill="#000000" font-family="sans-serif" font-size="14" lengthAdjust="spacing" textLength="30" x="193.5" y="110.1426">Main</text><rect fill="#F7F8FB" height="31.6094" rx="4" ry="4" style="stroke:#2563EB;stroke-width:0.5;" width="44" x="186.5" y="958.3828"/><text fill="#000000" font-family="sans-serif" font-size="14" lengthAdjust="spacing" textLength="30" x="193.5" y="979.916">Main</text><rect fill="#F7F8FB" height="31.6094" rx="4" ry="4" style="stroke:#2563EB;stroke-width:0.5;" width="136" x="392.5" y="88.6094"/><text fill="#000000" font-family="sans-serif" font-size="14" lengthAdjust="spacing" textLength="122" x="399.5" y="110.1426">TransactionService</text><rect fill="#F7F8FB" height="31.6094" rx="4" ry="4" style="stroke:#2563EB;stroke-width:0.5;" width="136" x="392.5" y="958.3828"/><text fill="#000000" font-family="sans-serif" font-size="14" lengthAdjust="spacing" textLength="122" x="399.5" y="979.916">TransactionService</text><rect fill="#F7F8FB" height="31.6094" rx="4" ry="4" style="stroke:#2563EB;stroke-width:0.5;" width="111" x="588" y="88.6094"/><text fill="#000000" font-family="sans-serif" font-size="14" lengthAdjust="spacing" textLength="97" x="595" y="110.1426">OverdraftPolicy</text><rect fill="#F7F8FB" height="31.6094" rx="4" ry="4" style="stroke:#2563EB;stroke-width:0.5;" width="111" x="588" y="958.3828"/><text fill="#000000" font-family="sans-serif" font-size="14" lengthAdjust="spacing" textLength="97" x="595" y="979.916">OverdraftPolicy</text><rect fill="#F7F8FB" height="31.6094" rx="4" ry="4" style="stroke:#2563EB;stroke-width:0.5;" width="107" x="709" y="88.6094"/><text fill="#000000" font-family="sans-serif" font-size="14" lengthAdjust="spacing" textLength="93" x="716" y="110.1426">Account (from)</text><rect fill="#F7F8FB" height="31.6094" rx="4" ry="4" style="stroke:#2563EB;stroke-width:0.5;" width="107" x="709" y="958.3828"/><text fill="#000000" font-family="sans-serif" font-size="14" lengthAdjust="spacing" textLength="93" x="716" y="979.916">Account (from)</text><rect fill="#F7F8FB" height="31.6094" rx="4" ry="4" style="stroke:#2563EB;stroke-width:0.5;" width="91" x="826" y="88.6094"/><text fill="#000000" font-family="sans-serif" font-size="14" lengthAdjust="spacing" textLength="77" x="833" y="110.1426">Account (to)</text><rect fill="#F7F8FB" height="31.6094" rx="4" ry="4" style="stroke:#2563EB;stroke-width:0.5;" width="91" x="826" y="958.3828"/><text fill="#000000" font-family="sans-serif" font-size="14" lengthAdjust="spacing" textLength="77" x="833" y="979.916">Account (to)</text><rect fill="#F7F8FB" height="31.6094" rx="4" ry="4" style="stroke:#2563EB;stroke-width:0.5;" width="75" x="927" y="88.6094"/><text fill="#000000" font-family="sans-serif" font-size="14" lengthAdjust="spacing" textLength="61" x="934" y="110.1426">Customer</text><rect fill="#F7F8FB" height="31.6094" rx="4" ry="4" style="stroke:#2563EB;stroke-width:0.5;" width="75" x="927" y="958.3828"/><text fill="#000000" font-family="sans-serif" font-size="14" lengthAdjust="spacing" textLength="61" x="934" y="979.916">Customer</text><rect fill="#F7F8FB" height="31.6094" rx="4" ry="4" style="stroke:#2563EB;stroke-width:0.5;" width="112" x="1012" y="88.6094"/><text fill="#000000" font-family="sans-serif" font-size="14" lengthAdjust="spacing" textLength="98" x="1019" y="110.1426">DataRepository</text><rect fill="#F7F8FB" height="31.6094" rx="4" ry="4" style="stroke:#2563EB;stroke-width:0.5;" width="112" x="1012" y="958.3828"/><text fill="#000000" font-family="sans-serif" font-size="14" lengthAdjust="spacing" textLength="98" x="1019" y="979.916">DataRepository</text><polygon fill="#181818" points="196.5,149.5703,206.5,153.5703,196.5,157.5703,200.5,153.5703" style="stroke:#181818;stroke-width:1.0;"/><line style="stroke:#181818;stroke-width:1.5;" x1="22.5" x2="202.5" y1="153.5703" y2="153.5703"/><text fill="#000000" font-family="sans-serif" font-size="13" lengthAdjust="spacing" textLength="162" x="29.5" y="148.7139">transfer fromId, toId, amount</text><polygon fill="#181818" points="448.5,179.9219,458.5,183.9219,448.5,187.9219,452.5,183.9219" style="stroke:#181818;stroke-width:1.0;"/><line style="stroke:#181818;stroke-width:1.5;" x1="208.5" x2="454.5" y1="183.9219" y2="183.9219"/><text fill="#000000" font-family="sans-serif" font-size="13" lengthAdjust="spacing" textLength="228" x="215.5" y="179.0654">transfer(customer, fromId, toId, amount)</text><line style="stroke:#181818;stroke-width:1.5;" x1="460.5" x2="502.5" y1="214.2734" y2="214.2734"/><line style="stroke:#181818;stroke-width:1.5;" x1="502.5" x2="502.5" y1="214.2734" y2="227.2734"/><line style="stroke:#181818;stroke-width:1.5;" x1="461.5" x2="502.5" y1="227.2734" y2="227.2734"/><polygon fill="#181818" points="471.5,223.2734,461.5,227.2734,471.5,231.2734,467.5,227.2734" style="stroke:#181818;stroke-width:1.0;"/><text fill="#000000" font-family="sans-serif" font-size="13" lengthAdjust="spacing" textLength="135" x="467.5" y="209.417">requirePositive(amount)</text><polygon fill="#181818" points="952.5,253.625,962.5,257.625,952.5,261.625,956.5,257.625" style="stroke:#181818;stroke-width:1.0;"/><line style="stroke:#181818;stroke-width:1.5;" x1="460.5" x2="958.5" y1="257.625" y2="257.625"/><text fill="#000000" font-family="sans-serif" font-size="13" lengthAdjust="spacing" textLength="111" x="467.5" y="252.7686">findAccount(fromId)</text><polygon fill="#181818" points="471.5,283.9766,461.5,287.9766,471.5,291.9766,467.5,287.9766" style="stroke:#181818;stroke-width:1.0;"/><line style="stroke:#181818;stroke-width:1.5;stroke-dasharray:2.0,2.0;" x1="465.5" x2="963.5" y1="287.9766" y2="287.9766"/><text fill="#000000" font-family="sans-serif" font-size="13" lengthAdjust="spacing" textLength="73" x="477.5" y="283.1201">fromAccount</text><polygon fill="#181818" points="952.5,314.3281,962.5,318.3281,952.5,322.3281,956.5,318.3281" style="stroke:#181818;stroke-width:1.0;"/><line style="stroke:#181818;stroke-width:1.5;" x1="460.5" x2="958.5" y1="318.3281" y2="318.3281"/><text fill="#000000" font-family="sans-serif" font-size="13" lengthAdjust="spacing" textLength="97" x="467.5" y="313.4717">findAccount(toId)</text><polygon fill="#181818" points="471.5,344.6797,461.5,348.6797,471.5,352.6797,467.5,348.6797" style="stroke:#181818;stroke-width:1.0;"/><line style="stroke:#181818;stroke-width:1.5;stroke-dasharray:2.0,2.0;" x1="465.5" x2="963.5" y1="348.6797" y2="348.6797"/><text fill="#000000" font-family="sans-serif" font-size="13" lengthAdjust="spacing" textLength="59" x="477.5" y="343.8232">toAccount</text><polygon fill="#181818" points="631.5,375.0313,641.5,379.0313,631.5,383.0313,635.5,379.0313" style="stroke:#181818;stroke-width:1.0;"/><line style="stroke:#181818;stroke-width:1.5;" x1="460.5" x2="637.5" y1="379.0313" y2="379.0313"/><text fill="#000000" font-family="sans-serif" font-size="13" lengthAdjust="spacing" textLength="159" x="467.5" y="374.1748">canWithdraw(from, amount)</text><polygon fill="#181818" points="471.5,405.3828,461.5,409.3828,471.5,413.3828,467.5,409.3828" style="stroke:#181818;stroke-width:1.0;"/><line style="stroke:#181818;stroke-width:1.5;stroke-dasharray:2.0,2.0;" x1="465.5" x2="642.5" y1="409.3828" y2="409.3828"/><text fill="#000000" font-family="sans-serif" font-size="13" lengthAdjust="spacing" textLength="61" x="477.5" y="404.5264">true / false</text><path d="M170.5,424.3828 L227.5,424.3828 L227.5,432.7344 L217.5,442.7344 L166.5,442.7344 L166.5,428.3828 A4,4 0 0 1 170.5,424.3828 " fill="#EEEEEE" style="stroke:#000000;stroke-width:1.5;"/><rect fill="none" height="518" rx="4" ry="4" style="stroke:#000000;stroke-width:1.5;" width="977.5" x="166.5" y="424.3828"/><text fill="#000000" font-family="sans-serif" font-size="13" font-weight="bold" lengthAdjust="spacing" textLength="16" x="181.5" y="438.8779">alt</text><text fill="#000000" font-family="sans-serif" font-size="11" font-weight="bold" lengthAdjust="spacing" textLength="72" x="242.5" y="437.8018">[not allowed]</text><polygon fill="#181818" points="219.5,461.0859,209.5,465.0859,219.5,469.0859,215.5,465.0859" style="stroke:#181818;stroke-width:1.0;"/><line style="stroke:#181818;stroke-width:1.5;stroke-dasharray:2.0,2.0;" x1="213.5" x2="459.5" y1="465.0859" y2="465.0859"/><text fill="#000000" font-family="sans-serif" font-size="13" lengthAdjust="spacing" textLength="164" x="225.5" y="460.2295">throws IllegalStateException</text><line style="stroke:#000000;stroke-width:1.0;stroke-dasharray:2.0,2.0;" x1="166.5" x2="1144" y1="474.0859" y2="474.0859"/><text fill="#000000" font-family="sans-serif" font-size="11" font-weight="bold" lengthAdjust="spacing" textLength="51" x="171.5" y="485.5049">[allowed]</text><polygon fill="#181818" points="750.5,507.2734,760.5,511.2734,750.5,515.2734,754.5,511.2734" style="stroke:#181818;stroke-width:1.0;"/><line style="stroke:#181818;stroke-width:1.5;" x1="460.5" x2="756.5" y1="511.2734" y2="511.2734"/><text fill="#000000" font-family="sans-serif" font-size="13" lengthAdjust="spacing" textLength="79" x="467.5" y="506.417">debit(amount)</text><polygon fill="#181818" points="471.5,537.625,461.5,541.625,471.5,545.625,467.5,541.625" style="stroke:#181818;stroke-width:1.0;"/><line style="stroke:#181818;stroke-width:1.5;stroke-dasharray:2.0,2.0;" x1="465.5" x2="761.5" y1="541.625" y2="541.625"/><text fill="#000000" font-family="sans-serif" font-size="13" lengthAdjust="spacing" textLength="72" x="477.5" y="536.7686">new balance</text><path d="M180.5,556.625 L237.5,556.625 L237.5,564.9766 L227.5,574.9766 L176.5,574.9766 L176.5,560.625 A4,4 0 0 1 180.5,556.625 " fill="#EEEEEE" style="stroke:#000000;stroke-width:1.5;"/><rect fill="none" height="378.7578" rx="4" ry="4" style="stroke:#000000;stroke-width:1.5;" width="957.5" x="176.5" y="556.625"/><text fill="#000000" font-family="sans-serif" font-size="13" font-weight="bold" lengthAdjust="spacing" textLength="16" x="191.5" y="571.1201">alt</text><text fill="#000000" font-family="sans-serif" font-size="11" font-weight="bold" lengthAdjust="spacing" textLength="111" x="252.5" y="570.0439">[to.credit succeeds]</text><polygon fill="#181818" points="859.5,593.3281,869.5,597.3281,859.5,601.3281,863.5,597.3281" style="stroke:#181818;stroke-width:1.0;"/><line style="stroke:#181818;stroke-width:1.5;" x1="460.5" x2="865.5" y1="597.3281" y2="597.3281"/><text fill="#000000" font-family="sans-serif" font-size="13" lengthAdjust="spacing" textLength="83" x="467.5" y="592.4717">credit(amount)</text><polygon fill="#181818" points="471.5,623.6797,461.5,627.6797,471.5,631.6797,467.5,627.6797" style="stroke:#181818;stroke-width:1.0;"/><line style="stroke:#181818;stroke-width:1.5;stroke-dasharray:2.0,2.0;" x1="465.5" x2="870.5" y1="627.6797" y2="627.6797"/><text fill="#000000" font-family="sans-serif" font-size="13" lengthAdjust="spacing" textLength="72" x="477.5" y="622.8232">new balance</text><polygon fill="#181818" points="952.5,654.0313,962.5,658.0313,952.5,662.0313,956.5,658.0313" style="stroke:#181818;stroke-width:1.0;"/><line style="stroke:#181818;stroke-width:1.5;" x1="460.5" x2="958.5" y1="658.0313" y2="658.0313"/><text fill="#000000" font-family="sans-serif" font-size="13" lengthAdjust="spacing" textLength="213" x="467.5" y="653.1748">recordTransaction(TRANSFER_OUT)</text><polygon fill="#181818" points="952.5,684.3828,962.5,688.3828,952.5,692.3828,956.5,688.3828" style="stroke:#181818;stroke-width:1.0;"/><line style="stroke:#181818;stroke-width:1.5;" x1="460.5" x2="958.5" y1="688.3828" y2="688.3828"/><text fill="#000000" font-family="sans-serif" font-size="13" lengthAdjust="spacing" textLength="199" x="467.5" y="683.5264">recordTransaction(TRANSFER_IN)</text><polygon fill="#181818" points="1056,714.7344,1066,718.7344,1056,722.7344,1060,718.7344" style="stroke:#181818;stroke-width:1.0;"/><line style="stroke:#181818;stroke-width:1.5;" x1="460.5" x2="1062" y1="718.7344" y2="718.7344"/><text fill="#000000" font-family="sans-serif" font-size="13" lengthAdjust="spacing" textLength="34" x="467.5" y="713.8779">save()</text><polygon fill="#181818" points="219.5,745.0859,209.5,749.0859,219.5,753.0859,215.5,749.0859" style="stroke:#181818;stroke-width:1.0;"/><line style="stroke:#181818;stroke-width:1.5;stroke-dasharray:2.0,2.0;" x1="213.5" x2="459.5" y1="749.0859" y2="749.0859"/><text fill="#000000" font-family="sans-serif" font-size="13" lengthAdjust="spacing" textLength="14" x="225.5" y="744.2295">ok</text><line style="stroke:#000000;stroke-width:1.0;stroke-dasharray:2.0,2.0;" x1="176.5" x2="1134" y1="758.0859" y2="758.0859"/><text fill="#000000" font-family="sans-serif" font-size="11" font-weight="bold" lengthAdjust="spacing" textLength="97" x="181.5" y="769.5049">[to.credit throws]</text><polygon fill="#181818" points="750.5,791.2734,760.5,795.2734,750.5,799.2734,754.5,795.2734" style="stroke:#181818;stroke-width:1.0;"/><line style="stroke:#181818;stroke-width:1.5;" x1="460.5" x2="756.5" y1="795.2734" y2="795.2734"/><text fill="#000000" font-family="sans-serif" font-size="13" lengthAdjust="spacing" textLength="83" x="467.5" y="790.417">credit(amount)</text><path d="M465,812.2734 L465,895.2734 A4,4 0 0 0 469,899.2734 L641,899.2734 A4,4 0 0 0 645,895.2734 L645,818.2734 L635,808.2734 L469,808.2734 A4,4 0 0 0 465,812.2734 " fill="#FEFFDD" style="stroke:#181818;stroke-width:0.5;"/><path d="M635,808.2734 L635,816.2734 A2,2 0 0 0 637,818.2734 L645,818.2734 L635,808.2734 " fill="#FEFFDD" style="stroke:#181818;stroke-width:0.5;"/><text fill="#000000" font-family="sans-serif" font-size="13" lengthAdjust="spacing" textLength="69" x="471" y="826.7686">ROLLBACK</text><text fill="#000000" font-family="sans-serif" font-size="13" lengthAdjust="spacing" textLength="135" x="471" y="843.1201">Put the money back on</text><text fill="#000000" font-family="sans-serif" font-size="13" lengthAdjust="spacing" textLength="159" x="471" y="859.4717">the source so the customer</text><text fill="#000000" font-family="sans-serif" font-size="13" lengthAdjust="spacing" textLength="129" x="471" y="875.8232">never loses funds on a</text><text fill="#000000" font-family="sans-serif" font-size="13" lengthAdjust="spacing" textLength="119" x="471" y="892.1748">half-finished transfer.</text><polygon fill="#181818" points="219.5,923.3828,209.5,927.3828,219.5,931.3828,215.5,927.3828" style="stroke:#181818;stroke-width:1.0;"/><line style="stroke:#181818;stroke-width:1.5;stroke-dasharray:2.0,2.0;" x1="213.5" x2="459.5" y1="927.3828" y2="927.3828"/><text fill="#000000" font-family="sans-serif" font-size="13" lengthAdjust="spacing" textLength="109" x="225.5" y="922.5264">rethrows exception</text><!--SRC=[hLNRRXen47ttLuoIXu2KKFMIDghKIEGc9IK90g8-LiOxPYsCJMqJYgfA_OX-OR-ausM1NRARYnHBi62VENDcF3Ex1rzUSR4zWAkhNliQJhWPApE2_i87dC2_FtzXuBZn4XtqySSCZK0uKtpa-0GQSnLIS5Rh8HVZ9h6ygYWMLD3u364NsiwXmOETA05RcfWdiocFSdtA4pkF999hZyMJFBAsStO-I9KO6_GUthOE2o1dPoOvjSwGnwCAO_Z5W5QNkw24cd8JJaZ1A3VJri6k_2IFvF01pBe4tH8Ir-wxmu_lSGdhA8aTPN0RimLhYs3TjhiSbWpnWvJiDsCyek3EesFJZNkuvigKDhB44bXPqqTthmIMZc_lqIMEoz2rMeb5wModBGGf2D2GpawQEy0zND2lVBi66omX8M87jWfvElDqkLkoptZWFPnQhoYg1MCnBZWupiA1pn1MrH65N2Rx46pyvfECFGCH-66e1TE6oFtkLv9GSLMOrv4wAXFbi1lrgdjih3YgALOHaw5K9icJqbZAQBBryK6TErb8-ejSn0YVuo2iRwg6VwjCo4HmyuswapRdMIIRH6vZwxsw6SARl84Prm6C3S0rJG1CibQe4bEeYfGwtCEbrZZYkXzumFEV0gSHpf18d-GwBjOpCIOuL65zcz6gU5uRYC4v3BdcD3XOPXLZ2ROb72OgW9y9WPXujkhscagp6o5BovAIpD2-IClZ_Werur3GJ2h06eDU-wP_STxxVditQBuAqUNDKppb8K1idbDlFMwrgGOxpe3PlMzolwoH9noNYw0czrIR24wDqW1MLerLAApURQTpqZxzMjhipg8UX8ark83uIWCgr28YddexSo8-id-hgLM26QGM0sqzUf3qYl340xm4IRcM1pGAb4ynMG_1rXg39iaYUcPo7URDXki6orbO_Fm7]--></g></svg>