<?xml version="1.0" encoding="us-ascii" standalone="no"?><svg xmlns="http://www.w3.org/2000/svg" xmlns:xlink="http://www.w3.org/1999/xlink" contentStyleType="text/css" height="787px" preserveAspectRatio="none" style="width:752px;height:787px;background:#FFFFFF;" version="1.1" viewBox="0 0 752 787" width="752px" zoomAndPan="magnify"><defs/><g><text fill="#000000" font-family="sans-serif" font-size="14" font-weight="bold" lengthAdjust="spacing" textLength="261.4375" x="246.2813" y="29.5332">JJRAM Banking System &#8212; Login Flow</text><rect fill="none" height="398.8906" rx="4" ry="4" style="stroke:#000000;stroke-width:1.5;" width="598.5" x="146.5" y="259.625"/><rect fill="none" height="246.6484" rx="4" ry="4" style="stroke:#000000;stroke-width:1.5;" width="578.5" x="156.5" y="404.8672"/><line style="stroke:#2563EB;stroke-width:0.5;stroke-dasharray:5.0,5.0;" x1="22" x2="22" y1="121.2188" y2="705.8672"/><line style="stroke:#2563EB;stroke-width:0.5;stroke-dasharray:5.0,5.0;" x1="188.5" x2="188.5" y1="121.2188" y2="705.8672"/><line style="stroke:#2563EB;stroke-width:0.5;stroke-dasharray:5.0,5.0;" x1="282.5" x2="282.5" y1="121.2188" y2="705.8672"/><line style="stroke:#2563EB;stroke-width:0.5;stroke-dasharray:5.0,5.0;" x1="409.5" x2="409.5" y1="121.2188" y2="705.8672"/><line style="stroke:#2563EB;stroke-width:0.5;stroke-dasharray:5.0,5.0;" x1="521" x2="521" y1="121.2188" y2="705.8672"/><line style="stroke:#2563EB;stroke-width:0.5;stroke-dasharray:5.0,5.0;" x1="686" x2="686" y1="121.2188" y2="705.8672"/><text fill="#000000" font-family="sans-serif" font-size="14" lengthAdjust="spacing" textLength="29" x="5" y="118.1426">User</text><ellipse cx="22.5" cy="52.1094" fill="#DBE4FF" rx="8" ry="8" style="stroke:#181818;stroke-width:0.5;"/><path d="M22.5,60.1094 L22.5,87.1094 M9.5,68.1094 L35.5,68.1094 M22.5,87.1094 L9.5,102.1094 M22.5,87.1094 L35.5,102.1094 " fill="none" style="stroke:#181818;stroke-width:0.5;"/><text fill="#000000" font-family="sans-serif" font-size="14" lengthAdjust="spacing" textLength="29" x="5" y="719.4004">User</text><ellipse cx="22.5" cy="730.9766" fill="#DBE4FF" rx="8" ry="8" style="stroke:#181818;stroke-width:0.5;"/><path d="M22.5,738.9766 L22.5,765.9766 M9.5,746.9766 L35.5,746.9766 M22.5,765.9766 L9.5,780.9766 M22.5,765.9766 L35.5,780.9766 " fill="none" style="stroke:#181818;stroke-width:0.5;"/><rect fill="#F7F8FB" height="31.6094" rx="4" ry="4" style="stroke:#2563EB;stroke-width:0.5;" width="44" x="166.5" y="88.6094"/><text fill="#000000" font-family="sans-serif" font-size="14" lengthAdjust="spacing" textLength="30" x="173.5" y="110.1426">Main</text><rect fill="#F7F8FB" height="31.6094" rx="4" ry="4" style="stroke:#2563EB;stroke-width:0.5;" width="44" x="166.5" y="704.8672"/><text fill="#000000" font-family="sans-serif" font-size="14" lengthAdjust="spacing" textLength="30" x="173.5" y="726.4004">Main</text><rect fill="#F7F8FB" height="31.6094" rx="4" ry="4" style="stroke:#2563EB;stroke-width:0.5;" width="90" x="237.5" y="88.6094"/><text fill="#000000" font-family="sans-serif" font-size="14" lengthAdjust="spacing" textLength="76" x="244.5" y="110.1426">AuthService</text><rect fill="#F7F8FB" height="31.6094" rx="4" ry="4" style="stroke:#2563EB;stroke-width:0.5;" width="90" x="237.5" y="704.8672"/><text fill="#000000" font-family="sans-serif" font-size="14" lengthAdjust="spacing" textLength="76" x="244.5" y="726.4004">AuthService</text><rect fill="#F7F8FB" height="31.6094" rx="4" ry="4" style="stroke:#2563EB;stroke-width:0.5;" width="112" x="353.5" y="88.6094"/><text fill="#000000" font-family="sans-serif" font-size="14" lengthAdjust="spacing" textLength="98" x="360.5" y="110.1426">DataRepository</text><rect fill="#F7F8FB" height="31.6094" rx="4" ry="4" style="stroke:#2563EB;stroke-width:0.5;" width="112" x="353.5" y="704.8672"/><text fill="#000000" font-family="sans-serif" font-size="14" lengthAdjust="spacing" textLength="98" x="360.5" y="726.4004">DataRepository</text><rect fill="#F7F8FB" height="31.6094" rx="4" ry="4" style="stroke:#2563EB;stroke-width:0.5;" width="75" x="484" y="88.6094"/><text fill="#000000" font-family="sans-serif" font-size="14" lengthAdjust="spacing" textLength="61" x="491" y="110.1426">Customer</text><rect fill="#F7F8FB" height="31.6094" rx="4" ry="4" style="stroke:#2563EB;stroke-width:0.5;" width="75" x="484" y="704.8672"/><text fill="#000000" font-family="sans-serif" font-size="14" lengthAdjust="spacing" textLength="61" x="491" y="726.4004">Customer</text><rect fill="#F7F8FB" height="31.6094" rx="4" ry="4" style="stroke:#2563EB;stroke-width:0.5;" width="77" x="648" y="88.6094"/><text fill="#000000" font-family="sans-serif" font-size="14" lengthAdjust="spacing" textLength="63" x="655" y="110.1426">JsonStore</text><rect fill="#F7F8FB" height="31.6094" rx="4" ry="4" style="stroke:#2563EB;stroke-width:0.5;" width="77" x="648" y="704.8672"/><text fill="#000000" font-family="sans-serif" font-size="14" lengthAdjust="spacing" textLength="63" x="655" y="726.4004">JsonStore</text><polygon fill="#181818" points="176.5,149.5703,186.5,153.5703,176.5,157.5703,180.5,153.5703" style="stroke:#181818;stroke-width:1.0;"/><line style="stroke:#181818;stroke-width:1.5;" x1="22.5" x2="182.5" y1="153.5703" y2="153.5703"/><text fill="#000000" font-family="sans-serif" font-size="13" lengthAdjust="spacing" textLength="101" x="29.5" y="148.7139">Customer ID, PIN</text><polygon fill="#181818" points="270.5,179.9219,280.5,183.9219,270.5,187.9219,274.5,183.9219" style="stroke:#181818;stroke-width:1.0;"/><line style="stroke:#181818;stroke-width:1.5;" x1="188.5" x2="276.5" y1="183.9219" y2="183.9219"/><text fill="#000000" font-family="sans-serif" font-size="13" lengthAdjust="spacing" textLength="70" x="195.5" y="179.0654">login(id, pin)</text><polygon fill="#181818" points="397.5,210.2734,407.5,214.2734,397.5,218.2734,401.5,214.2734" style="stroke:#181818;stroke-width:1.0;"/><line style="stroke:#181818;stroke-width:1.5;" x1="282.5" x2="403.5" y1="214.2734" y2="214.2734"/><text fill="#000000" font-family="sans-serif" font-size="13" lengthAdjust="spacing" textLength="94" x="289.5" y="209.417">findCustomer(id)</text><polygon fill="#181818" points="293.5,240.625,283.5,244.625,293.5,248.625,289.5,244.625" style="stroke:#181818;stroke-width:1.0;"/><line style="stroke:#181818;stroke-width:1.5;stroke-dasharray:2.0,2.0;" x1="287.5" x2="408.5" y1="244.625" y2="244.625"/><text fill="#000000" font-family="sans-serif" font-size="13" lengthAdjust="spacing" textLength="103" x="299.5" y="239.7686">Customer (or null)</text><path d="M150.5,259.625 L207.5,259.625 L207.5,267.9766 L197.5,277.9766 L146.5,277.9766 L146.5,263.625 A4,4 0 0 1 150.5,259.625 " fill="#EEEEEE" style="stroke:#000000;stroke-width:1.5;"/><rect fill="none" height="398.8906" rx="4" ry="4" style="stroke:#000000;stroke-width:1.5;" width="598.5" x="146.5" y="259.625"/><text fill="#000000" font-family="sans-serif" font-size="13" font-weight="bold" lengthAdjust="spacing" textLength="16" x="161.5" y="274.1201">alt</text><text fill="#000000" font-family="sans-serif" font-size="11" font-weight="bold" lengthAdjust="spacing" textLength="98" x="222.5" y="273.0439">[customer is null]</text><polygon fill="#181818" points="199.5,296.3281,189.5,300.3281,199.5,304.3281,195.5,300.3281" style="stroke:#181818;stroke-width:1.0;"/><line style="stroke:#181818;stroke-width:1.5;stroke-dasharray:2.0,2.0;" x1="193.5" x2="281.5" y1="300.3281" y2="300.3281"/><text fill="#000000" font-family="sans-serif" font-size="13" lengthAdjust="spacing" textLength="20" x="205.5" y="295.4717">null</text><line style="stroke:#000000;stroke-width:1.0;stroke-dasharray:2.0,2.0;" x1="146.5" x2="745" y1="309.3281" y2="309.3281"/><text fill="#000000" font-family="sans-serif" font-size="11" font-weight="bold" lengthAdjust="spacing" textLength="99" x="151.5" y="320.7471">[customer exists]</text><polygon fill="#181818" points="509.5,342.5156,519.5,346.5156,509.5,350.5156,513.5,346.5156" style="stroke:#181818;stroke-width:1.0;"/><line style="stroke:#181818;stroke-width:1.5;" x1="282.5" x2="515.5" y1="346.5156" y2="346.5156"/><text fill="#000000" font-family="sans-serif" font-size="13" lengthAdjust="spacing" textLength="73" x="289.5" y="341.6592">verifyPin(pin)</text><line style="stroke:#181818;stroke-width:1.5;" x1="521.5" x2="563.5" y1="376.8672" y2="376.8672"/><line style="stroke:#181818;stroke-width:1.5;" x1="563.5" x2="563.5" y1="376.8672" y2="389.8672"/><line style="stroke:#181818;stroke-width:1.5;" x1="522.5" x2="563.5" y1="389.8672" y2="389.8672"/><polygon fill="#181818" points="532.5,385.8672,522.5,389.8672,532.5,393.8672,528.5,389.8672" style="stroke:#181818;stroke-width:1.0;"/><text fill="#000000" font-family="sans-serif" font-size="13" lengthAdjust="spacing" textLength="151" x="528.5" y="372.0107">hashPin(pin) and compare</text><path d="M160.5,404.8672 L217.5,404.8672 L217.5,413.2188 L207.5,423.2188 L156.5,423.2188 L156.5,408.8672 A4,4 0 0 1 160.5,404.8672 " fill="#EEEEEE" style="stroke:#000000;stroke-width:1.5;"/><rect fill="none" height="246.6484" rx="4" ry="4" style="stroke:#000000;stroke-width:1.5;" width="578.5" x="156.5" y="404.8672"/><text fill="#000000" font-family="sans-serif" font-size="13" font-weight="bold" lengthAdjust="spacing" textLength="16" x="171.5" y="419.3623">alt</text><text fill="#000000" font-family="sans-serif" font-size="11" font-weight="bold" lengthAdjust="spacing" textLength="76" x="232.5" y="418.2861">[pin matches]</text><polygon fill="#181818" points="293.5,441.5703,283.5,445.5703,293.5,449.5703,289.5,445.5703" style="stroke:#181818;stroke-width:1.0;"/><line style="stroke:#181818;stroke-width:1.5;stroke-dasharray:2.0,2.0;" x1="287.5" x2="520.5" y1="445.5703" y2="445.5703"/><text fill="#000000" font-family="sans-serif" font-size="13" lengthAdjust="spacing" textLength="157" x="299.5" y="440.7139">true (resets failedAttempts)</text><polygon fill="#181818" points="397.5,471.9219,407.5,475.9219,397.5,479.9219,401.5,475.9219" style="stroke:#181818;stroke-width:1.0;"/><line style="stroke:#181818;stroke-width:1.5;" x1="282.5" x2="403.5" y1="475.9219" y2="475.9219"/><text fill="#000000" font-family="sans-serif" font-size="13" lengthAdjust="spacing" textLength="34" x="289.5" y="471.0654">save()</text><polygon fill="#181818" points="674.5,502.2734,684.5,506.2734,674.5,510.2734,678.5,506.2734" style="stroke:#181818;stroke-width:1.0;"/><line style="stroke:#181818;stroke-width:1.5;" x1="409.5" x2="680.5" y1="506.2734" y2="506.2734"/><text fill="#000000" font-family="sans-serif" font-size="13" lengthAdjust="spacing" textLength="62" x="416.5" y="501.417">save(bank)</text><polygon fill="#181818" points="199.5,532.625,189.5,536.625,199.5,540.625,195.5,536.625" style="stroke:#181818;stroke-width:1.0;"/><line style="stroke:#181818;stroke-width:1.5;stroke-dasharray:2.0,2.0;" x1="193.5" x2="281.5" y1="536.625" y2="536.625"/><text fill="#000000" font-family="sans-serif" font-size="13" lengthAdjust="spacing" textLength="56" x="205.5" y="531.7686">Customer</text><line style="stroke:#000000;stroke-width:1.0;stroke-dasharray:2.0,2.0;" x1="156.5" x2="735" y1="545.625" y2="545.625"/><text fill="#000000" font-family="sans-serif" font-size="11" font-weight="bold" lengthAdjust="spacing" textLength="64" x="161.5" y="557.0439">[pin wrong]</text><polygon fill="#181818" points="293.5,578.8125,283.5,582.8125,293.5,586.8125,289.5,582.8125" style="stroke:#181818;stroke-width:1.0;"/><line style="stroke:#181818;stroke-width:1.5;stroke-dasharray:2.0,2.0;" x1="287.5" x2="520.5" y1="582.8125" y2="582.8125"/><text fill="#000000" font-family="sans-serif" font-size="13" lengthAdjust="spacing" textLength="215" x="299.5" y="577.9561">false (increments counter, locks at 3)</text><polygon fill="#181818" points="397.5,609.1641,407.5,613.1641,397.5,617.1641,401.5,613.1641" style="stroke:#181818;stroke-width:1.0;"/><line style="stroke:#181818;stroke-width:1.5;" x1="282.5" x2="403.5" y1="613.1641" y2="613.1641"/><text fill="#000000" font-family="sans-serif" font-size="13" lengthAdjust="spacing" textLength="34" x="289.5" y="608.3076">save()</text><polygon fill="#181818" points="199.5,639.5156,189.5,643.5156,199.5,647.5156,195.5,643.5156" style="stroke:#181818;stroke-width:1.0;"/><line style="stroke:#181818;stroke-width:1.5;stroke-dasharray:2.0,2.0;" x1="193.5" x2="281.5" y1="643.5156" y2="643.5156"/><text fill="#000000" font-family="sans-serif" font-size="13" lengthAdjust="spacing" textLength="20" x="205.5" y="638.6592">null</text><polygon fill="#181818" points="33.5,683.8672,23.5,687.8672,33.5,691.8672,29.5,687.8672" style="stroke:#181818;stroke-width:1.0;"/><line style="stroke:#181818;stroke-width:1.5;stroke-dasharray:2.0,2.0;" x1="27.5" x2="187.5" y1="687.8672" y2="687.8672"/><text fill="#000000" font-family="sans-serif" font-size="13" lengthAdjust="spacing" textLength="142" x="39.5" y="683.0107">Welcome OR "try again"</text><!--SRC=[hPFRQjj048Rlzoc6v28oE8KsJHiCDJWnXHYxDNP3hzUhaRHujQlkhkoQ4kX3z0dx91sj3xBajYab2xgP-URmZsOkuDqpFdO1C1hD1XEuvNefTGhpZVEOmy_lFs1iKgbXZbzAr09XA7bgUGxHL77j7oPZSAQq0ZkKv5bxObvwXK_rzLwPDMEEd0Mlsd8PZyswGXEk71vxTWe6rfhrfqoAfKRduEMBwoF8cbB7TyPgj73pcs3une3Ub5ilXIne0hTSBDDTc38MpfEtoKsoEC6CZT5kaUgTlxf-SuLRR2mJ74kDRQQ53OGtjbrkXyKBV9qax94nNb7muD2oeYuF4ovrmp0eVJP7kv826_OXzto6XN6IycmQhhlIUPEt4e-SqND2aR6gA5psGote7N2u7tPXUl-11JlvZqeJfgh_6Ccu2uNK7NRi9BRP3k699Ecxp1JLOItYygJ0eO-81gDBfJeq9UL1xEtI1VDsoCVbQot1ZxHGTHH-bSwxqw1-NR07AxGosKn9O11NmGTlayouo_OSS1s3C3dD6KDCrIuv8ETUPBWjsinrejhR4Y6owD0xkWMfC1vukft2kyuX_gbXExx2gCRRe-xNVtyFB-XG_v3_T3C25wPQYLjRezD_aHOk6oAfXSKSDUaJT10URPUMIImTS0zN_otoRniG-jKngxxTEXCHzhu7dr7HFqFuE8CpJvbvIi0P-mK0]--></g></svg>